<svg width="200" height="52" viewBox="0 0 200 52" fill="none" xmlns="http://www.w3.org/2000/svg">
<g clip-path="url(#clip0_5_80)">
<path d="M60.4199 48.19C60.5099 48.849 60.0199 49.339 60.5699 49.66C60.0599 50.11 59.3399 49.53 58.9599 49.36C58.7399 49.429 59.0099 49.549 58.9599 49.799C58.6099 49.889 57.8899 49.619 57.7799 49.949C57.4799 49.819 57.3399 49.518 57.3399 49.069C56.8399 48.949 56.7299 49.339 56.4699 49.069C56.6499 48.159 55.9999 48.079 55.8799 47.459C56.9799 47.389 57.2899 45.98 56.7599 45.119C57.7799 45.609 57.3599 47.539 58.0799 48.339C58.3499 47.819 57.8799 46.779 57.7799 46.139C58.2199 46.49 58.9099 46.579 59.5399 46.73C59.4599 47.6 59.5299 48.3 60.4199 48.19Z" fill="white"/>
<path d="M60.42 40.87C60.13 41.96 60.36 43.09 60.42 44.24C59.38 43.769 58.25 44.38 58.08 45.26C57.42 44.67 57.17 43.93 56.17 43.651C55.87 43.571 55.58 43.81 55.29 43.8C54.25 43.77 53.84 43.01 53.39 42.04C53.07 42.019 53.32 42.56 53.24 42.769C52.35 42.589 52.23 41.639 51.19 41.599C51.26 40.62 51.38 39.839 50.76 39.849C51.24 39.099 51.04 37.969 50.46 37.499C50.47 36.769 50.91 36.489 51.19 36.039C51.9 36.399 52.66 36.719 53.68 36.768C53.44 38.178 54.61 38.189 54.86 39.109C53.26 39.508 54.01 42.629 55.15 42.919C55.82 43.069 55.83 42.119 56.17 42.769C56.61 42.58 56.43 41.759 56.47 41.16C57.14 41.059 57.61 40.75 57.78 40.139C58.65 40.4 59.3 40.87 60.42 40.87ZM53.1 41.46C53.48 41.5 53.58 41.25 53.54 40.87C53.15 40.83 53.16 41.18 53.1 41.46Z" fill="white"/>
<path d="M58.6597 37.06C59.4797 37.5 60.2497 39.481 58.9597 39.991C59.9497 38.31 57.0497 36.541 57.1997 39.111C56.6497 39.27 56.7297 38.81 56.4697 38.671C56.5697 37.51 57.2397 36.91 58.6597 37.06Z" fill="white"/>
<path d="M53.8292 46.29C55.0892 47 55.1192 49 55.2892 50.24C52.8992 50.679 49.8792 50.24 46.9492 50.24C38.1192 50.24 29.8092 50.37 21.9092 50.389C22.0392 49.289 22.4092 48.45 22.4992 47.309C23.2192 46.28 24.6992 46.349 26.4492 45.849C27.1692 45.639 27.7692 45.19 28.2092 45.12C28.8692 45.01 29.5892 45.23 30.3992 45.26C32.4392 45.35 34.8392 45.16 36.4092 45.12C39.3092 45.03 42.0592 45.45 46.3592 45.26C47.6492 45.21 48.9792 44.83 49.8792 44.97C50.2992 45.04 50.7492 45.6 51.4892 45.85C52.3992 46.16 53.4592 46.08 53.8292 46.29Z" fill="white"/>
<path d="M48.5596 6.17C52.4896 6.56 55.3996 9.78 54.9996 13.93C54.7496 16.56 53.0696 18.45 50.3196 18.91C50.1296 19.84 50.1696 21 50.1696 22.13C49.8796 22.62 49.4996 23.02 49.4396 23.74C50.2696 23.26 51.1096 22.47 51.1896 21.4C51.2596 20.57 50.3796 19.68 51.0496 19.05C51.5996 19.24 51.6196 19.95 51.7796 20.52C52.2296 21.23 53.0296 21.61 54.2696 21.54C53.6496 22.44 54.1496 23.37 55.1496 23.45C55.0496 23.94 54.6896 24.16 54.5596 24.62C54.6796 25.09 54.9996 25.36 54.9996 25.94C54.4796 26.35 53.1696 25.81 52.6596 26.52C52.1196 26.42 52.2996 25.61 51.9296 25.35C51.5896 25.35 51.2396 25.35 50.8996 25.35C50.9396 24.56 51.5296 24.32 51.4896 23.45C50.8496 23.41 50.2696 24.08 49.7296 24.47C48.9696 25.02 48.1396 25.35 47.3896 25.94C46.6196 26.54 46.0296 27.41 45.4796 28.13C45.8996 28.63 46.3496 27.16 46.6596 27.55C46.2696 28.45 46.7096 29.06 46.9496 29.74C45.6996 29.96 45.1796 30.9 44.6096 31.79C44.2296 31.25 43.8396 30.7 43.4296 30.18C43.7496 29.691 43.7396 29.25 43.2896 28.861C43.4596 28.161 44.3096 28.131 44.3096 27.251C41.6996 27.431 38.5896 28.361 35.6696 28.721C35.7996 29.001 36.0396 30.732 35.2296 30.911C35.2096 31.281 35.4596 31.371 35.5296 31.651C35.2096 30.31 36.9996 30.321 36.8396 28.72C37.8396 29.071 38.8596 28.72 39.7696 28.571C39.5896 29.921 40.2396 30.451 40.5096 31.35C40.0496 31.481 39.8896 31.911 39.3296 31.941C39.0396 32.371 39.6096 32.901 39.3296 33.26C37.7396 32.66 36.6996 33.83 35.5296 34.14C36.0296 35.31 35.8296 37.441 34.6496 37.8C33.1696 36.01 33.6396 31.93 33.9196 29.16C32.7696 29.19 30.9596 29.809 29.8196 30.33C30.2396 30.74 30.9396 30.19 31.4296 30.18C30.8796 31.1 31.5696 31.56 31.7196 32.531C31.7396 32.991 31.1296 32.81 30.9896 33.111C31.0696 33.64 30.8196 33.821 30.6896 34.14C30.0196 34.18 30.4896 33.071 29.8196 33.111C29.9896 34.211 30.2196 36.51 30.1096 38.381C29.4096 38.271 29.1696 38.611 28.4996 38.531C28.1596 38.041 28.1896 37.18 28.2096 36.331C27.6296 36.351 27.7496 37.051 27.1796 37.06C26.4196 37.14 26.0096 36.871 25.4196 36.77C24.8896 37.22 24.4296 37.731 23.9596 38.241C24.0696 38.761 24.3396 39.131 24.6896 39.411C24.5696 39.821 23.9296 39.721 23.6696 39.991C23.5596 40.731 23.8696 41.06 23.9596 41.6C22.4196 41.21 21.6596 42.29 21.0296 42.34C21.3396 41 20.2296 41.09 19.5696 40.72C19.4196 40.14 19.3896 39.441 19.4196 38.67C20.2496 38.58 20.5496 37.95 20.7396 37.21C21.7896 37.94 22.9196 36.81 23.8096 37.65C24.4996 37.36 24.6096 36.49 24.5396 35.45C23.0996 35.23 22.9996 36.35 22.1996 36.77C21.9696 35.93 21.5396 35.281 21.0296 34.72C21.4596 33.88 22.1196 33.09 21.4696 31.941C22.2796 31.67 23.0796 31.411 23.3696 30.621C24.0496 30.871 24.3796 31.471 25.4196 31.35C25.9996 31.33 25.3796 31.58 25.7196 31.79C26.5696 31.38 27.0896 30.63 28.0596 30.33C27.9096 27.14 27.5596 22.94 27.1796 19.49C23.7796 19.17 21.6596 16.23 21.6196 13.05C21.5696 9.52 24.3196 7.96 27.0296 6.9C26.5896 6.22 26.0696 5.62 25.1296 5.44C25.2196 5.04 25.7396 5.07 25.7196 4.56C25.5896 3.9 24.9596 3.75 24.8396 3.09C25.7196 2.9 26.9396 3.05 26.8896 1.92C27.5096 1.89 27.6296 2.35 28.0596 2.51C28.5796 2.49 28.5896 1.97 29.2296 2.07C29.4896 3.5 30.3796 4.97 30.2596 6.31C30.6896 6.31 31.1296 6.31 31.5696 6.31C31.0996 5.77 31.0196 4.82 30.5496 4.26C30.9596 3.35 31.8896 2.97 32.0096 1.78C33.4696 2.17 33.2396 4.26 35.5296 3.83C35.2396 4.71 34.6596 5.3 34.3596 6.17C33.7996 6.28 33.6596 5.99 33.1796 6.02C33.1396 5.23 33.3296 4.21 32.8896 3.83C32.4296 4.3 33.1196 5.91 32.4496 6.17C34.6696 6.42 36.9196 6.86 38.8996 6.75C42.1396 6.58 45.4096 5.86 48.5596 6.17ZM52.9496 15.39C54.4596 13.24 53.4296 11.22 52.3696 9.39C51.1296 8.72 49.4096 7.97 47.3896 7.78C44.2096 7.47 40.4496 8.42 36.6996 8.66C34.1496 8.82 31.7096 8.38 29.6696 8.36C25.8096 8.34 23.2696 10.6 23.5196 14.66C24.6496 16.19 25.9896 18.26 28.3496 18.03C30.9696 17.77 32.4896 13.89 30.1096 12.03C27.9296 11.47 25.4196 13 27.1796 14.51C27.8396 14.87 28.1696 13.79 28.9396 13.78C29.2796 14.17 29.8496 14.33 29.9596 14.95C28.9396 17.17 25.2296 16.34 24.8396 14.37C24.2396 11.39 26.6196 10.09 28.4996 9.98C33.7296 9.65 34.8296 18.38 29.5196 19.2C29.4296 22.97 29.7496 25.43 29.6696 29.16C30.7796 29.269 32.0496 28.33 33.3296 28.13C33.1396 27.5 32.0896 27.71 31.5696 27.401C32.0796 25.86 34.2796 26.01 35.0896 24.76C35.0696 25.03 35.2296 25.11 35.5296 25.06C36.0296 24.53 36.2096 23.69 36.4096 22.86C37.0296 23.26 37.0996 24.22 38.1596 24.18C37.9996 22.8 37.7796 20.91 37.7196 19.49C37.6596 17.86 37.4696 15.54 37.7196 14.66C37.8496 14.23 38.2096 13.35 39.0396 13.64C40.6196 16.65 40.0696 21.78 40.2096 26.23C40.1896 26.69 39.4196 26.42 39.4796 26.96C42.2996 26.7 44.5196 25.85 46.9496 25.2C46.3696 24.66 45.5996 24.31 44.7496 24.03C45.8596 23.72 46.1596 22.61 47.0896 22.13C47.2796 22.63 47.2996 23.29 48.1196 23.15C48.0896 21.72 48.2196 20.13 47.9696 18.91C47.1396 18.47 46.4296 18.51 45.7796 18.03C42.7396 15.81 44.2096 9.57 48.9996 10.27C50.2096 11.1 51.7996 11.86 51.6296 13.64C51.4496 15.59 48.6496 16.7 47.3896 14.66C47.7296 13.66 48.6496 14.14 49.5796 14.37C51.1296 12.73 48.2696 10.83 46.6596 12.32C46.3196 12.63 45.8996 13.95 45.9196 14.66C45.9896 16.51 47.6996 18.16 49.8796 17.74C50.5696 17.6 52.2596 16.39 52.9496 15.39ZM48.4096 24.18C48.0196 24.18 47.6296 24.18 47.2396 24.18C47.2596 24.54 47.5196 24.63 47.2396 24.91C47.7296 24.77 48.2996 24.7 48.4096 24.18ZM45.0396 26.96C44.1096 26.79 44.7196 27.41 45.0396 26.96V26.96ZM39.0396 26.81C38.2796 26.6 38.0396 25.86 37.2796 25.64C37.2196 25.97 37.7396 26.44 37.4296 26.52C36.4596 26.46 36.2296 25.67 35.3796 25.5C35.1296 26.84 37.3196 26.46 37.1396 27.25C37.7896 27.12 38.7396 27.29 39.0396 26.81ZM29.9596 6.46C29.9796 5.88 28.6996 6.17 28.6496 6.46C29.0796 6.46 29.5196 6.46 29.9596 6.46ZM28.7896 33.7C29.0496 33.559 29.5796 33.7 29.5196 33.26C29.0996 33.23 28.7196 33.24 28.7896 33.7ZM27.7696 6.61C26.8296 6.44 27.4396 7.05 27.7696 6.61V6.61Z" fill="white"/>
<path d="M51.6294 43.21C51.6894 44.09 50.6494 44.12 50.0194 44.24C44.5394 43.86 38.1194 44.28 31.4294 44.24C29.6594 44.23 26.7794 44.36 26.5994 43.36C26.3994 42.29 28.6494 41.7 29.5194 41.599C31.1594 41.419 33.0794 41.749 35.0894 41.9C38.8194 42.17 42.7494 41.599 45.6294 41.599C45.3194 41.099 44.5694 41.219 44.0194 41.16C39.3794 40.7 33.3594 41.16 28.6494 41.46C28.4994 40.77 28.2794 40.16 28.3494 39.26C35.9894 39.481 42.8794 38.25 49.8794 39.111C49.9594 39.921 49.8394 40.411 50.0194 41.31C48.9694 41.361 48.4994 41.63 47.5294 41.46C47.5294 41.86 48.2194 41.83 48.5594 41.9C49.3394 42.06 51.5794 42.34 51.6294 43.21Z" fill="white"/>
<path d="M50.1697 25.06C50.4897 29.38 50.1497 33.78 50.0197 38.09C49.2597 38.27 48.8097 38.13 47.9697 37.8C48.1297 34.1 48.1397 30.25 48.1197 26.38C48.4997 25.73 49.3097 25.51 49.8797 25.06C49.9697 25.06 50.0697 25.06 50.1697 25.06Z" fill="white"/>
<path d="M33.04 11.15C37.17 11.53 40.93 10.64 45.19 10.71C45.08 11.57 44.53 12 44.17 12.61C40.46 12.94 38.02 12.82 33.62 12.61C33.55 12 33.11 11.76 33.04 11.15Z" fill="white"/>
<path d="M44.1697 31.79C44.2197 32.92 44.8797 37.15 43.4297 37.5C41.7697 36.37 42.6197 31.05 42.4097 27.69C42.8197 27.809 42.7897 27.49 43.1397 27.549C43.5297 27.639 43.0197 29.619 42.9897 30.469C43.2197 31.08 43.9097 31.22 44.1697 31.79Z" fill="white"/>
<path d="M43.8697 17.44C43.9797 19.98 44.0697 23.08 43.8697 25.79C43.3197 25.91 42.8397 26.25 42.2597 25.94C42.1897 22.13 41.3297 17.59 42.4097 14.37C42.4497 14.23 42.9497 13.88 42.9897 14.22C43.9697 14.77 43.8297 16.32 43.8697 17.44Z" fill="white"/>
<path d="M40.2098 31.94C40.5498 33.66 40.3498 36.07 40.0698 37.65C39.5398 37.719 39.2198 37.889 38.7498 37.65C38.2098 36.679 38.5498 34.82 38.4598 33.4C38.8998 33.4 39.3298 33.4 39.7698 33.4C39.8998 32.879 39.1998 32.429 39.6298 32.089C39.7598 31.97 39.9598 31.93 40.2098 31.94Z" fill="white"/>
<path d="M35.23 14.08C35.74 17.23 36.05 21.12 35.53 24.47C34.5 24.18 34.56 25.58 33.92 25.2C33.56 21.58 33.46 17.86 33.92 14.37C34.04 14.34 34.06 14.22 34.21 14.22C34.4 14.02 34.85 14.08 35.23 14.08Z" fill="white"/>
<path d="M98.347 6.0278H97.1141C97.0412 5.67316 96.9136 5.36161 96.7313 5.09314C96.5523 4.82468 96.3335 4.5993 96.075 4.41701C95.8198 4.2314 95.5364 4.0922 95.2249 3.99939C94.9133 3.90659 94.5885 3.86019 94.2504 3.86019C93.634 3.86019 93.0755 4.01596 92.575 4.32752C92.0779 4.63907 91.6818 5.09811 91.3868 5.70465C91.0951 6.31118 90.9493 7.05526 90.9493 7.93689C90.9493 8.81852 91.0951 9.5626 91.3868 10.1691C91.6818 10.7757 92.0779 11.2347 92.575 11.5463C93.0755 11.8578 93.634 12.0136 94.2504 12.0136C94.5885 12.0136 94.9133 11.9672 95.2249 11.8744C95.5364 11.7816 95.8198 11.644 96.075 11.4618C96.3335 11.2761 96.5523 11.0491 96.7313 10.7806C96.9136 10.5089 97.0412 10.1973 97.1141 9.84598H98.347C98.2542 10.3663 98.0852 10.832 97.8399 11.243C97.5947 11.654 97.2897 12.0037 96.9252 12.292C96.5606 12.577 96.1512 12.7941 95.6972 12.9433C95.2464 13.0924 94.7642 13.167 94.2504 13.167C93.3821 13.167 92.6098 12.9549 91.9337 12.5306C91.2575 12.1064 90.7256 11.5032 90.3378 10.721C89.95 9.93879 89.7561 9.01076 89.7561 7.93689C89.7561 6.86303 89.95 5.935 90.3378 5.1528C90.7256 4.3706 91.2575 3.76738 91.9337 3.34314C92.6098 2.9189 93.3821 2.70678 94.2504 2.70678C94.7642 2.70678 95.2464 2.78135 95.6972 2.9305C96.1512 3.07965 96.5606 3.2984 96.9252 3.58675C97.2897 3.87179 97.5947 4.2198 97.8399 4.63078C98.0852 5.03845 98.2542 5.50413 98.347 6.0278ZM100.339 13.0278V2.84598H106.484V3.93973H101.572V7.38007H106.166V8.47382H101.572V11.9341H106.564V13.0278H100.339ZM116.78 2.84598V13.0278H115.587L110.039 5.03348H109.94V13.0278H108.707V2.84598H109.9L115.468 10.8602H115.567V2.84598H116.78ZM118.691 3.93973V2.84598H126.327V3.93973H123.125V13.0278H121.892V3.93973H118.691ZM128.23 13.0278V2.84598H131.67C132.466 2.84598 133.119 2.98187 133.629 3.25365C134.14 3.52212 134.517 3.89167 134.763 4.36232C135.008 4.83296 135.131 5.36824 135.131 5.96814C135.131 6.56805 135.008 7.10001 134.763 7.56402C134.517 8.02804 134.141 8.39262 133.634 8.65777C133.127 8.91961 132.479 9.05053 131.69 9.05053H128.906V7.93689H131.65C132.194 7.93689 132.632 7.85735 132.963 7.69826C133.298 7.53916 133.54 7.31379 133.689 7.02212C133.841 6.72714 133.918 6.37581 133.918 5.96814C133.918 5.56047 133.841 5.20417 133.689 4.89925C133.536 4.59433 133.293 4.359 132.958 4.19328C132.623 4.02425 132.181 3.93973 131.631 3.93973H129.463V13.0278H128.23ZM133.023 8.45394L135.528 13.0278H134.097L131.631 8.45394H133.023ZM145.776 7.93689C145.776 9.01076 145.582 9.93879 145.194 10.721C144.807 11.5032 144.275 12.1064 143.598 12.5306C142.922 12.9549 142.15 13.167 141.282 13.167C140.413 13.167 139.641 12.9549 138.965 12.5306C138.289 12.1064 137.757 11.5032 137.369 10.721C136.981 9.93879 136.787 9.01076 136.787 7.93689C136.787 6.86303 136.981 5.935 137.369 5.1528C137.757 4.3706 138.289 3.76738 138.965 3.34314C139.641 2.9189 140.413 2.70678 141.282 2.70678C142.15 2.70678 142.922 2.9189 143.598 3.34314C144.275 3.76738 144.807 4.3706 145.194 5.1528C145.582 5.935 145.776 6.86303 145.776 7.93689ZM144.583 7.93689C144.583 7.05526 144.435 6.31118 144.14 5.70465C143.849 5.09811 143.453 4.63907 142.952 4.32752C142.455 4.01596 141.898 3.86019 141.282 3.86019C140.665 3.86019 140.107 4.01596 139.606 4.32752C139.109 4.63907 138.713 5.09811 138.418 5.70465C138.126 6.31118 137.981 7.05526 137.981 7.93689C137.981 8.81852 138.126 9.5626 138.418 10.1691C138.713 10.7757 139.109 11.2347 139.606 11.5463C140.107 11.8578 140.665 12.0136 141.282 12.0136C141.898 12.0136 142.455 11.8578 142.952 11.5463C143.453 11.2347 143.849 10.7757 144.14 10.1691C144.435 9.5626 144.583 8.81852 144.583 7.93689ZM154.929 13.0278H151.787V2.84598H155.068C156.056 2.84598 156.901 3.04982 157.603 3.45749C158.306 3.86184 158.845 4.44352 159.219 5.20252C159.594 5.9582 159.781 6.86303 159.781 7.91701C159.781 8.97761 159.592 9.89073 159.214 10.6564C158.836 11.4187 158.286 12.0053 157.564 12.4163C156.841 12.824 155.963 13.0278 154.929 13.0278ZM153.02 11.9341H154.849C155.691 11.9341 156.389 11.7716 156.942 11.4468C157.496 11.122 157.908 10.6597 158.18 10.0598C158.452 9.45986 158.588 8.7456 158.588 7.91701C158.588 7.09504 158.454 6.38741 158.185 5.79414C157.917 5.19755 157.516 4.74016 156.982 4.42198C156.448 4.10048 155.784 3.93973 154.988 3.93973H153.02V11.9341ZM161.849 13.0278V2.84598H167.994V3.93973H163.082V7.38007H167.676V8.47382H163.082V11.9341H168.074V13.0278H161.849Z" fill="white"/>
<path d="M81.5884 29.8278V19.646H85.0288C85.8275 19.646 86.4805 19.7902 86.9876 20.0785C87.498 20.3636 87.8758 20.7497 88.1211 21.2369C88.3664 21.7241 88.489 22.2677 88.489 22.8676C88.489 23.4675 88.3664 24.0127 88.1211 24.5032C87.8791 24.9938 87.5046 25.3849 86.9975 25.6765C86.4904 25.9649 85.8408 26.1091 85.0487 26.1091H82.5827V25.0153H85.0089C85.5558 25.0153 85.9949 24.9208 86.3263 24.7319C86.6578 24.543 86.8981 24.2878 87.0472 23.9663C87.1997 23.6415 87.2759 23.2752 87.2759 22.8676C87.2759 22.4599 87.1997 22.0953 87.0472 21.7738C86.8981 21.4523 86.6561 21.2004 86.3214 21.0181C85.9866 20.8325 85.5425 20.7397 84.989 20.7397H82.8214V29.8278H81.5884ZM96.0433 22.1914C95.9837 21.6877 95.7417 21.2966 95.3175 21.0181C94.8932 20.7397 94.3729 20.6005 93.7564 20.6005C93.3056 20.6005 92.9112 20.6734 92.5732 20.8193C92.2384 20.9651 91.9766 21.1656 91.7876 21.4208C91.602 21.6761 91.5092 21.9661 91.5092 22.2909C91.5092 22.5627 91.5739 22.7963 91.7031 22.9919C91.8357 23.1841 92.0047 23.3448 92.2102 23.4741C92.4157 23.6001 92.6312 23.7045 92.8565 23.7873C93.0819 23.8669 93.2891 23.9315 93.478 23.9812L94.5121 24.2596C94.7772 24.3292 95.0722 24.4253 95.397 24.548C95.7251 24.6706 96.0384 24.838 96.3366 25.0501C96.6383 25.2589 96.8868 25.5274 97.0824 25.8555C97.2779 26.1836 97.3757 26.5863 97.3757 27.0636C97.3757 27.6138 97.2315 28.1109 96.9432 28.5551C96.6581 28.9992 96.2405 29.3522 95.6903 29.614C95.1435 29.8759 94.4789 30.0068 93.6967 30.0068C92.9676 30.0068 92.3362 29.8891 91.8026 29.6538C91.2723 29.4185 90.8546 29.0904 90.5497 28.6694C90.2481 28.2485 90.0774 27.7596 90.0376 27.2028H91.3104C91.3435 27.5873 91.4728 27.9055 91.6982 28.1573C91.9268 28.4059 92.2152 28.5915 92.5632 28.7142C92.9145 28.8335 93.2924 28.8931 93.6967 28.8931C94.1674 28.8931 94.59 28.8169 94.9645 28.6645C95.339 28.5087 95.6357 28.2932 95.8544 28.0181C96.0732 27.7397 96.1825 27.4149 96.1825 27.0437C96.1825 26.7056 96.0881 26.4306 95.8991 26.2184C95.7102 26.0063 95.4616 25.834 95.1534 25.7014C94.8452 25.5688 94.5121 25.4528 94.1541 25.3534L92.9013 24.9954C92.1058 24.7667 91.4761 24.4403 91.0121 24.016C90.5481 23.5918 90.3161 23.0366 90.3161 22.3505C90.3161 21.7805 90.4702 21.2833 90.7784 20.8591C91.09 20.4315 91.5076 20.1001 92.0312 19.8647C92.5582 19.6261 93.1465 19.5068 93.7962 19.5068C94.4524 19.5068 95.0357 19.6244 95.5462 19.8598C96.0566 20.0918 96.4609 20.41 96.7592 20.8143C97.0608 21.2187 97.2199 21.6777 97.2365 22.1914H96.0433ZM100.636 19.646V29.8278H99.4029V19.646H100.636ZM111.301 22.8278H110.068C109.995 22.4732 109.868 22.1616 109.685 21.8931C109.506 21.6247 109.288 21.3993 109.029 21.217C108.774 21.0314 108.491 20.8922 108.179 20.7994C107.867 20.7066 107.543 20.6602 107.205 20.6602C106.588 20.6602 106.03 20.816 105.529 21.1275C105.032 21.4391 104.636 21.8981 104.341 22.5047C104.049 23.1112 103.903 23.8553 103.903 24.7369C103.903 25.6185 104.049 26.3626 104.341 26.9691C104.636 27.5757 105.032 28.0347 105.529 28.3463C106.03 28.6578 106.588 28.8136 107.205 28.8136C107.543 28.8136 107.867 28.7672 108.179 28.6744C108.491 28.5816 108.774 28.444 109.029 28.2618C109.288 28.0761 109.506 27.8491 109.685 27.5806C109.868 27.3089 109.995 26.9973 110.068 26.646H111.301C111.208 27.1663 111.039 27.632 110.794 28.043C110.549 28.454 110.244 28.8037 109.879 29.092C109.515 29.377 109.105 29.5941 108.651 29.7433C108.201 29.8924 107.718 29.967 107.205 29.967C106.336 29.967 105.564 29.7549 104.888 29.3306C104.212 28.9064 103.68 28.3032 103.292 27.521C102.904 26.7388 102.71 25.8108 102.71 24.7369C102.71 23.663 102.904 22.735 103.292 21.9528C103.68 21.1706 104.212 20.5674 104.888 20.1431C105.564 19.7189 106.336 19.5068 107.205 19.5068C107.718 19.5068 108.201 19.5814 108.651 19.7305C109.105 19.8797 109.515 20.0984 109.879 20.3868C110.244 20.6718 110.549 21.0198 110.794 21.4308C111.039 21.8385 111.208 22.3041 111.301 22.8278ZM121.884 24.7369C121.884 25.8108 121.691 26.7388 121.303 27.521C120.915 28.3032 120.383 28.9064 119.707 29.3306C119.031 29.7549 118.258 29.967 117.39 29.967C116.522 29.967 115.749 29.7549 115.073 29.3306C114.397 28.9064 113.865 28.3032 113.477 27.521C113.09 26.7388 112.896 25.8108 112.896 24.7369C112.896 23.663 113.09 22.735 113.477 21.9528C113.865 21.1706 114.397 20.5674 115.073 20.1431C115.749 19.7189 116.522 19.5068 117.39 19.5068C118.258 19.5068 119.031 19.7189 119.707 20.1431C120.383 20.5674 120.915 21.1706 121.303 21.9528C121.691 22.735 121.884 23.663 121.884 24.7369ZM120.691 24.7369C120.691 23.8553 120.544 23.1112 120.249 22.5047C119.957 21.8981 119.561 21.4391 119.061 21.1275C118.563 20.816 118.007 20.6602 117.39 20.6602C116.774 20.6602 116.215 20.816 115.715 21.1275C115.218 21.4391 114.821 21.8981 114.526 22.5047C114.235 23.1112 114.089 23.8553 114.089 24.7369C114.089 25.6185 114.235 26.3626 114.526 26.9691C114.821 27.5757 115.218 28.0347 115.715 28.3463C116.215 28.6578 116.774 28.8136 117.39 28.8136C118.007 28.8136 118.563 28.6578 119.061 28.3463C119.561 28.0347 119.957 27.5757 120.249 26.9691C120.544 26.3626 120.691 25.6185 120.691 24.7369ZM122.977 20.7397V19.646H130.613V20.7397H127.412V29.8278H126.179V20.7397H122.977ZM132.516 29.8278V19.646H138.661V20.7397H133.749V24.1801H138.343V25.2738H133.749V28.7341H138.741V29.8278H132.516ZM140.883 29.8278V19.646H144.324C145.119 19.646 145.772 19.7819 146.282 20.0537C146.793 20.3221 147.171 20.6917 147.416 21.1623C147.661 21.633 147.784 22.1682 147.784 22.7681C147.784 23.3681 147.661 23.9 147.416 24.364C147.171 24.828 146.795 25.1926 146.287 25.4578C145.78 25.7196 145.132 25.8505 144.344 25.8505H141.559V24.7369H144.304C144.847 24.7369 145.285 24.6573 145.616 24.4983C145.951 24.3392 146.193 24.1138 146.342 23.8221C146.495 23.5271 146.571 23.1758 146.571 22.7681C146.571 22.3605 146.495 22.0042 146.342 21.6993C146.19 21.3943 145.946 21.159 145.611 20.9933C145.277 20.8243 144.834 20.7397 144.284 20.7397H142.116V29.8278H140.883ZM145.676 25.2539L148.182 29.8278H146.75L144.284 25.2539H145.676ZM150.256 29.8278H148.963L152.702 19.646H153.975L157.713 29.8278H156.421L153.378 21.2568H153.299L150.256 29.8278ZM150.733 25.8505H155.944V26.9443H150.733V25.8505ZM159.299 29.8278V19.646H162.74C163.538 19.646 164.191 19.7902 164.699 20.0785C165.209 20.3636 165.587 20.7497 165.832 21.2369C166.077 21.7241 166.2 22.2677 166.2 22.8676C166.2 23.4675 166.077 24.0127 165.832 24.5032C165.59 24.9938 165.216 25.3849 164.708 25.6765C164.201 25.9649 163.552 26.1091 162.76 26.1091H160.294V25.0153H162.72C163.267 25.0153 163.706 24.9208 164.037 24.7319C164.369 24.543 164.609 24.2878 164.758 23.9663C164.911 23.6415 164.987 23.2752 164.987 22.8676C164.987 22.4599 164.911 22.0953 164.758 21.7738C164.609 21.4523 164.367 21.2004 164.032 21.0181C163.698 20.8325 163.253 20.7397 162.7 20.7397H160.532V29.8278H159.299ZM169.419 19.646V29.8278H168.186V19.646H169.419ZM172.309 29.8278H171.016L174.755 19.646H176.028L179.766 29.8278H178.474L175.431 21.2568H175.351L172.309 29.8278ZM172.786 25.8505H177.996V26.9443H172.786V25.8505Z" fill="white"/>
<path d="M100.294 39.6278H99.0613C98.9884 39.2732 98.8608 38.9616 98.6785 38.6931C98.4996 38.4247 98.2808 38.1993 98.0223 38.017C97.7671 37.8314 97.4837 37.6922 97.1721 37.5994C96.8606 37.5066 96.5358 37.4602 96.1977 37.4602C95.5812 37.4602 95.0228 37.616 94.5223 37.9275C94.0251 38.2391 93.6291 38.6981 93.3341 39.3046C93.0424 39.9112 92.8966 40.6553 92.8966 41.5369C92.8966 42.4185 93.0424 43.1626 93.3341 43.7691C93.6291 44.3757 94.0251 44.8347 94.5223 45.1463C95.0228 45.4578 95.5812 45.6136 96.1977 45.6136C96.5358 45.6136 96.8606 45.5672 97.1721 45.4744C97.4837 45.3816 97.7671 45.244 98.0223 45.0617C98.2808 44.8761 98.4996 44.6491 98.6785 44.3806C98.8608 44.1089 98.9884 43.7973 99.0613 43.446H100.294C100.201 43.9663 100.032 44.432 99.7872 44.843C99.5419 45.254 99.237 45.6037 98.8724 45.892C98.5078 46.177 98.0985 46.3941 97.6444 46.5433C97.1937 46.6924 96.7114 46.767 96.1977 46.767C95.3293 46.767 94.5571 46.5549 93.8809 46.1306C93.2048 45.7064 92.6729 45.1032 92.2851 44.321C91.8973 43.5388 91.7034 42.6108 91.7034 41.5369C91.7034 40.463 91.8973 39.535 92.2851 38.7528C92.6729 37.9706 93.2048 37.3674 93.8809 36.9431C94.5571 36.5189 95.3293 36.3068 96.1977 36.3068C96.7114 36.3068 97.1937 36.3814 97.6444 36.5305C98.0985 36.6796 98.5078 36.8984 98.8724 37.1867C99.237 37.4718 99.5419 37.8198 99.7872 38.2308C100.032 38.6385 100.201 39.1041 100.294 39.6278ZM110.878 41.5369C110.878 42.6108 110.684 43.5388 110.296 44.321C109.908 45.1032 109.376 45.7064 108.7 46.1306C108.024 46.5549 107.252 46.767 106.383 46.767C105.515 46.767 104.743 46.5549 104.066 46.1306C103.39 45.7064 102.858 45.1032 102.471 44.321C102.083 43.5388 101.889 42.6108 101.889 41.5369C101.889 40.463 102.083 39.535 102.471 38.7528C102.858 37.9706 103.39 37.3674 104.066 36.9431C104.743 36.5189 105.515 36.3068 106.383 36.3068C107.252 36.3068 108.024 36.5189 108.7 36.9431C109.376 37.3674 109.908 37.9706 110.296 38.7528C110.684 39.535 110.878 40.463 110.878 41.5369ZM109.684 41.5369C109.684 40.6553 109.537 39.9112 109.242 39.3046C108.95 38.6981 108.554 38.2391 108.054 37.9275C107.557 37.616 107 37.4602 106.383 37.4602C105.767 37.4602 105.208 37.616 104.708 37.9275C104.211 38.2391 103.815 38.6981 103.52 39.3046C103.228 39.9112 103.082 40.6553 103.082 41.5369C103.082 42.4185 103.228 43.1626 103.52 43.7691C103.815 44.3757 104.211 44.8347 104.708 45.1463C105.208 45.4578 105.767 45.6136 106.383 45.6136C107 45.6136 107.557 45.4578 108.054 45.1463C108.554 44.8347 108.95 44.3757 109.242 43.7691C109.537 43.1626 109.684 42.4185 109.684 41.5369ZM119.911 39.6278C119.802 39.293 119.657 38.9931 119.478 38.7279C119.303 38.4595 119.092 38.2308 118.847 38.0419C118.605 37.8529 118.33 37.7088 118.022 37.6093C117.714 37.5099 117.375 37.4602 117.008 37.4602C116.404 37.4602 115.856 37.616 115.362 37.9275C114.868 38.2391 114.475 38.6981 114.184 39.3046C113.892 39.9112 113.746 40.6553 113.746 41.5369C113.746 42.4185 113.894 43.1626 114.189 43.7691C114.484 44.3757 114.883 44.8347 115.387 45.1463C115.891 45.4578 116.457 45.6136 117.087 45.6136C117.67 45.6136 118.184 45.4893 118.628 45.2407C119.076 44.9888 119.424 44.6342 119.672 44.1768C119.924 43.7161 120.05 43.1742 120.05 42.5511L120.428 42.6306H117.366V41.5369H121.243V42.6306C121.243 43.4692 121.064 44.1983 120.706 44.8181C120.352 45.4379 119.861 45.9185 119.235 46.2599C118.612 46.598 117.896 46.767 117.087 46.767C116.186 46.767 115.393 46.5549 114.711 46.1306C114.031 45.7064 113.501 45.1032 113.12 44.321C112.742 43.5388 112.553 42.6108 112.553 41.5369C112.553 40.7315 112.661 40.0073 112.876 39.3643C113.095 38.718 113.403 38.1678 113.801 37.7137C114.199 37.2597 114.669 36.9117 115.213 36.6697C115.756 36.4278 116.355 36.3068 117.008 36.3068C117.544 36.3068 118.045 36.388 118.509 36.5504C118.976 36.7095 119.392 36.9365 119.757 37.2315C120.125 37.5232 120.431 37.8728 120.677 38.2805C120.922 38.6849 121.091 39.134 121.184 39.6278H119.911ZM131.429 36.446V46.6278H130.236L124.687 38.6335H124.588V46.6278H123.355V36.446H124.548L130.116 44.4602H130.216V36.446H131.429ZM135.129 36.446V46.6278H133.896V36.446H135.129ZM137.044 37.5397V36.446H144.681V37.5397H141.479V46.6278H140.246V37.5397H137.044ZM147.816 36.446V46.6278H146.584V36.446H147.816ZM150.706 36.446L153.729 45.017H153.848L156.871 36.446H158.164L154.425 46.6278H153.152L149.414 36.446H150.706ZM159.292 46.6278H158L161.738 36.446H163.011L166.75 46.6278H165.457L162.414 38.0568H162.335L159.292 46.6278ZM159.769 42.6505H164.98V43.7443H159.769V42.6505Z" fill="white"/>
</g>
<defs>
<clipPath id="clip0_5_80">
<rect width="200" height="52" fill="white"/>
</clipPath>
</defs>
</svg>
